<svg width="568" height="576" viewBox="0 0 568 576" fill="none" xmlns="http://www.w3.org/2000/svg">
<path d="M259.459 352.377C205.515 333.578 159.262 309.333 128.088 285.374C112.494 273.389 100.743 261.529 93.6705 250.519C86.586 239.49 84.3367 229.549 87.2398 221.219C90.143 212.888 98.0832 206.499 110.488 202.261C122.871 198.031 139.449 196.044 159.113 196.346C198.426 196.952 249.73 206.704 303.674 225.503C357.617 244.303 403.87 268.548 435.045 292.507C450.638 304.492 462.39 316.352 469.462 327.362C476.547 338.391 478.796 348.331 475.893 356.662C472.99 364.993 465.049 371.382 452.645 375.619C440.261 379.849 423.684 381.837 404.019 381.534C364.706 380.929 313.403 371.176 259.459 352.377Z" stroke="#70DA98" stroke-opacity="0.7" stroke-width="3"/>
<path d="M250.801 348.743C199.983 322.649 157.537 292.227 129.984 264.178C116.202 250.148 106.208 236.774 100.73 224.89C95.2423 212.985 94.3923 202.829 98.422 194.981C102.452 187.133 111.201 181.906 124.073 179.429C136.923 176.956 153.616 177.285 173.049 180.311C211.899 186.359 261.356 203.128 312.173 229.222C362.991 255.316 405.437 285.738 432.99 313.786C446.772 327.816 456.766 341.191 462.244 353.074C467.732 364.979 468.582 375.135 464.552 382.983C460.522 390.831 451.773 396.058 438.901 398.535C426.051 401.008 409.358 400.679 389.925 397.654C351.076 391.606 301.619 374.837 250.801 348.743Z" stroke="#70DA98" stroke-opacity="0.7" stroke-width="3"/>
<path d="M272.474 353.965C216.126 344.569 166.437 328.502 131.657 310.166C114.259 300.994 100.67 291.294 91.8363 281.64C82.9871 271.969 79.0876 262.553 80.5388 253.851C81.99 245.149 88.7341 237.508 100.243 231.232C111.731 224.967 127.733 220.202 147.165 217.172C186.013 211.114 238.227 212.042 294.575 221.439C350.922 230.835 400.612 246.902 435.392 265.238C452.789 274.41 466.378 284.11 475.212 293.764C484.061 303.435 487.961 312.851 486.51 321.553C485.059 330.255 478.314 337.896 466.806 344.172C455.317 350.437 439.316 355.202 419.883 358.232C381.035 364.29 328.821 363.362 272.474 353.965Z" stroke="#70DA98" stroke-opacity="0.7" stroke-width="3"/>
</svg>
