<svg width="411" height="153" viewBox="0 0 411 153" fill="none" xmlns="http://www.w3.org/2000/svg">
<path d="M194.474 142.965C138.126 133.569 88.4368 117.502 53.6568 99.1658C36.2595 89.9937 22.6701 80.2938 13.8363 70.6397C4.98711 60.9689 1.08761 51.5527 2.53878 42.8509C3.98995 34.149 10.734 26.5079 22.2426 20.232C33.7312 13.967 49.7328 9.20189 69.1651 6.17169C108.013 0.113868 160.227 1.04167 216.575 10.4385C272.922 19.8354 322.612 35.9017 357.392 54.2381C374.789 63.4103 388.378 73.1102 397.212 82.7642C406.061 92.4351 409.961 101.851 408.51 110.553C407.059 119.255 400.314 126.896 388.806 133.172C377.317 139.437 361.316 144.202 341.883 147.232C303.035 153.29 250.821 152.362 194.474 142.965Z" stroke="#70DA98" stroke-opacity="0.7" stroke-width="3"/>
</svg>
