<svg width="375" height="226" viewBox="0 0 375 226" fill="none" xmlns="http://www.w3.org/2000/svg">
<path d="M156.801 172.743C105.983 146.649 63.537 116.227 35.9842 88.1785C22.202 74.1483 12.2078 60.7739 6.72975 48.8899C1.2422 36.9853 0.392241 26.8291 4.42198 18.9812C8.45172 11.1334 17.2008 5.90617 30.0732 3.42903C42.9232 0.956224 59.616 1.28516 79.0491 4.31051C117.899 10.3586 167.355 27.1276 218.173 53.2216C268.991 79.3157 311.437 109.738 338.99 137.786C352.772 151.816 362.766 165.191 368.244 177.074C373.732 188.979 374.582 199.135 370.552 206.983C366.522 214.831 357.773 220.058 344.901 222.535C332.051 225.008 315.358 224.679 295.925 221.654C257.075 215.606 207.619 198.837 156.801 172.743Z" stroke="#70DA98" stroke-opacity="0.7" stroke-width="3"/>
</svg>
