<svg width="395" height="190" viewBox="0 0 395 190" fill="none" xmlns="http://www.w3.org/2000/svg">
<path d="M175.459 158.377C121.515 139.578 75.2621 115.333 44.0879 91.3736C28.4941 79.389 16.7427 67.5288 9.67049 56.5188C2.58596 45.4895 0.336594 35.5492 3.23976 27.2186C6.14293 18.8879 14.0831 12.4986 26.4879 8.26129C38.8712 4.03139 55.4485 2.04359 75.1133 2.3464C114.426 2.95174 165.73 12.7044 219.674 31.5035C273.617 50.3025 319.87 74.5479 351.045 98.5069C366.638 110.492 378.39 122.352 385.462 133.362C392.547 144.391 394.796 154.331 391.893 162.662C388.99 170.993 381.049 177.382 368.645 181.619C356.261 185.849 339.684 187.837 320.019 187.534C280.706 186.929 229.403 177.176 175.459 158.377Z" stroke="#70DA98" stroke-opacity="0.7" stroke-width="3"/>
</svg>
